<?xml version="1.0" encoding="utf-8"?>
<!-- Generator: Adobe Illustrator 23.0.3, SVG Export Plug-In . SVG Version: 6.00 Build 0)  -->
<svg version="1.1" id="Capa_1" xmlns="http://www.w3.org/2000/svg" xmlns:xlink="http://www.w3.org/1999/xlink" x="0px" y="0px"
	 viewBox="0 0 438.3 438.3" style="enable-background:new 0 0 438.3 438.3;" xml:space="preserve">
<style type="text/css">
	.st0{fill:url(#SVGID_1_);}
</style>
<g>
	<linearGradient id="SVGID_1_" gradientUnits="userSpaceOnUse" x1="9.212" y1="219.1388" x2="429.0636" y2="219.1388">
		<stop  offset="0" style="stop-color:#1245C6"/>
		<stop  offset="1" style="stop-color:#9909B7"/>
	</linearGradient>
	<path class="st0" d="M428.8,300.1c-0.7-3.8-2.3-7-5-9.7c-5.9-5.9-12.8-7.1-20.6-3.7c-20.9,9.7-42.6,14.6-65.1,14.6
		c-28.2,0-54.2-6.9-77.9-20.8c-23.8-13.9-42.6-32.7-56.5-56.5c-13.9-23.8-20.8-49.8-20.8-77.9c0-21.9,4.3-42.7,13-62.4
		c8.7-19.7,21.2-37,37.5-51.8c6.3-5.9,7.7-12.8,4.3-20.6c-3.2-7.8-9-11.5-17.4-11.1c-29.1,1.1-56.7,7.7-82.8,19.6
		c-26.1,11.9-48.5,27.5-67.2,47C51.4,86,36.6,108.9,25.6,135.5C14.7,162.1,9.2,189.9,9.2,219c0,29.7,5.8,58.1,17.4,85.1
		c11.6,27,27.2,50.3,46.8,69.9c19.6,19.6,42.9,35.2,70,46.8c27,11.6,55.4,17.4,85.1,17.4c42.6,0,82-11.6,118.1-34.7
		c36.1-23.1,63-54,80.9-92.6C429,307.5,429.4,303.9,428.8,300.1z M306.6,384.2c-24.6,11.7-50.7,17.6-78.1,17.6
		c-24.7,0-48.4-4.9-70.9-14.6c-22.6-9.7-42-22.7-58.2-39C83,331.9,70,312.5,60.3,290c-9.7-22.6-14.6-46.2-14.6-70.9
		c0-40.9,12.1-77.5,36.4-109.6c24.3-32.2,55.5-54,93.8-65.4c-19.8,31.4-29.7,65.4-29.7,101.9c0,34.6,8.6,66.7,25.7,96.2
		c17.1,29.5,40.4,52.8,69.9,69.9c29.5,17.1,61.6,25.7,96.2,25.7c10.7,0,21.1-0.9,31.4-2.6C352.2,356.2,331.2,372.5,306.6,384.2z"/>
</g>
</svg>
